# xmcd
#
# Track frame offsets: 
#        150
#        17384
#        27140
#        42681
#        54294
#        71293
#        84732
#        103797
#        115124
#        135656
#        158338
#
# Disc length: 4224 seconds
#
# Revision: 0
# Processed by: cddbd v1.5.2PL0 Copyright (c) Steve Scherf et al.
# Submitted via: ExactAudioCopy v1.0b4
#
DISCID=7f107e0b
DTITLE=Mike Bloomfield - Cruisin' For A Bruisin' (LP)
DYEAR=1980
DGENRE=Blues
TTITLE0=Cruisin' For A Bruisin'
TTITLE1=Linda Lu
TTITLE2=Papa-Mama-Rompah-Stompah
TTITLE3=Junker's Blues
TTITLE4=Midnight
TTITLE5=t'll Be Me
TTITLE6=Motorized Blues
TTITLE7=Mathilda
TTITLE8=Winter Moon
TTITLE9=Snowblind
TTITLE10=Cruisin' For A Bruisin' (LP)
EXTD=
EXTT0=
EXTT1=
EXTT2=
EXTT3=
EXTT4=
EXTT5=
EXTT6=
EXTT7=
EXTT8=
EXTT9=
EXTT10=
PLAYORDER=
